<?xml version="1.0" standalone="no"?>
<!DOCTYPE svg PUBLIC "-//W3C//DTD SVG 20010904//EN"
 "http://www.w3.org/TR/2001/REC-SVG-20010904/DTD/svg10.dtd">
<svg version="1.0" xmlns="http://www.w3.org/2000/svg"
 width="700.000000pt" height="700.000000pt" viewBox="0 0 700.000000 700.000000"
 preserveAspectRatio="xMidYMid meet">
<metadata>
Created by potrace 1.14, written by Peter Selinger 2001-2017
</metadata>
<g transform="translate(0.000000,700.000000) scale(0.100000,-0.100000)"
fill="#000000" stroke="none">
<path d="M2998 6725 c-1 -1 -84 -6 -183 -10 -99 -4 -205 -8 -235 -10 -103 -6
-265 -16 -309 -20 -24 -3 -82 -7 -130 -10 -47 -3 -99 -8 -116 -10 -16 -2 -66
-7 -110 -10 -44 -3 -96 -8 -115 -10 -19 -2 -71 -7 -115 -10 -171 -13 -256 -39
-351 -109 -169 -122 -252 -333 -213 -535 29 -147 331 -660 643 -1091 50 -69
95 -130 101 -137 5 -7 15 -18 20 -25 40 -52 211 -265 220 -274 5 -6 30 -35 55
-65 195 -231 519 -558 770 -779 41 -36 88 -77 105 -92 l30 -28 -35 -31 c-19
-18 -66 -59 -104 -93 -191 -167 -461 -434 -616 -606 -51 -58 -96 -107 -100
-110 -18 -16 -211 -252 -313 -383 -318 -406 -731 -1074 -771 -1245 -14 -63
-15 -187 -2 -246 24 -102 102 -228 180 -289 23 -17 43 -35 46 -39 10 -13 134
-65 175 -73 61 -12 130 -19 280 -30 39 -3 88 -7 110 -10 50 -5 245 -21 365
-30 462 -33 633 -39 1200 -39 441 -1 689 5 945 19 193 11 284 17 305 20 14 2
72 7 130 10 58 4 113 9 124 11 10 2 57 6 105 9 47 3 102 7 121 10 19 2 67 6
105 10 248 20 379 87 484 248 51 79 78 157 87 252 10 112 -9 189 -81 329 -103
200 -348 599 -499 810 -23 33 -105 145 -139 190 -298 400 -718 854 -1091 1181
-38 33 -85 75 -105 93 l-36 32 35 32 c19 17 66 58 105 92 371 326 749 732
1064 1146 297 390 667 987 725 1170 85 268 -67 566 -336 660 -58 20 -110 27
-318 45 -36 3 -87 8 -115 10 -27 2 -86 7 -130 11 -44 3 -96 8 -115 10 -19 1
-80 6 -135 9 -55 3 -119 8 -142 10 -23 2 -97 7 -165 11 -68 3 -157 8 -198 10
-92 6 -1207 14 -1212 9z m1375 -1090 c100 -49 157 -136 159 -242 2 -69 -15
-125 -50 -173 -15 -19 -203 -212 -419 -428 -438 -438 -443 -442 -563 -442
-119 0 -124 4 -568 448 -220 219 -411 417 -425 439 -26 41 -48 131 -41 168 17
92 28 115 76 167 41 46 109 81 168 88 25 3 396 5 825 4 l780 0 58 -29z m-757
-3009 c46 -21 119 -90 467 -438 368 -369 414 -418 429 -463 41 -119 20 -222
-62 -304 -89 -89 -44 -85 -925 -86 -423 0 -791 3 -817 7 -132 19 -233 127
-242 258 -2 29 4 71 17 111 21 63 25 68 433 475 297 298 424 419 459 437 71
35 167 37 241 3z"/>
</g>
</svg>
